<?xml version="1.0" encoding="UTF-8" standalone="no"?>
<svg
   xmlns:dc="http://purl.org/dc/elements/1.1/"
   xmlns:cc="http://creativecommons.org/ns#"
   xmlns:rdf="http://www.w3.org/1999/02/22-rdf-syntax-ns#"
   xmlns:svg="http://www.w3.org/2000/svg"
   xmlns="http://www.w3.org/2000/svg"
   xmlns:sodipodi="http://sodipodi.sourceforge.net/DTD/sodipodi-0.dtd"
   xmlns:inkscape="http://www.inkscape.org/namespaces/inkscape"
   aria-hidden="true"
   data-prefix="far"
   data-icon="clock"
   class="svg-inline--fa fa-clock fa-w-16"
   viewBox="0 0 512 512"
   version="1.1"
   id="svg1483"
   sodipodi:docname="clock-regular-blue.svg"
   inkscape:version="0.92.4 (5da689c313, 2019-01-14)">
  <metadata
     id="metadata1489">
    <rdf:RDF>
      <cc:Work
         rdf:about="">
        <dc:format>image/svg+xml</dc:format>
        <dc:type
           rdf:resource="http://purl.org/dc/dcmitype/StillImage" />
        <dc:title></dc:title>
      </cc:Work>
    </rdf:RDF>
  </metadata>
  <defs
     id="defs1487" />
  <sodipodi:namedview
     pagecolor="#ffffff"
     bordercolor="#666666"
     borderopacity="1"
     objecttolerance="10"
     gridtolerance="10"
     guidetolerance="10"
     inkscape:pageopacity="0"
     inkscape:pageshadow="2"
     inkscape:window-width="1920"
     inkscape:window-height="1001"
     id="namedview1485"
     showgrid="false"
     inkscape:zoom="0.4609375"
     inkscape:cx="256"
     inkscape:cy="256"
     inkscape:window-x="-9"
     inkscape:window-y="-9"
     inkscape:window-maximized="1"
     inkscape:current-layer="svg1483" />
  <g
     id="g2272"
     style="stroke-width:15;stroke-miterlimit:4;stroke-dasharray:none"
     transform="matrix(0.98312875,0,0,0.96615477,8.5659189,8.7608668)">
    <g
       id="g2269"
       style="fill:#ffffff;stroke:#709dca;stroke-width:15;stroke-miterlimit:4;stroke-dasharray:none;stroke-opacity:1">
      <path
         id="path2219"
         d="M 256,8 C 148.81005,8 57.536334,75.950082 22.890573,171.13853 l -3.420201,9.39692 C 54.116133,85.347009 145.38985,17.396926 252.5798,17.396926 Z"
         style="stroke-width:15;stroke-miterlimit:4;stroke-dasharray:none"
         inkscape:connector-curvature="0" />
      <path
         id="path2221"
         d="M 22.890573,171.13853 C 13.255418,197.6109 8,226.18995 8,256 l -3.4202014,9.39693 c 0,-29.81005 5.2554176,-58.3891 14.8905734,-84.86148 z"
         style="stroke-width:15;stroke-miterlimit:4;stroke-dasharray:none"
         inkscape:connector-curvature="0" />
      <path
         id="path2223"
         d="m 8,256 c 0,137 111,248 248,248 l -3.4202,9.39693 c -137,0 -248.0000014,-111 -248.0000014,-248 z"
         style="stroke-width:15;stroke-miterlimit:4;stroke-dasharray:none"
         inkscape:connector-curvature="0" />
      <path
         id="path2225"
         d="m 256,504 c 107.18995,0 198.46367,-67.95008 233.10943,-163.13853 l -3.4202,9.39693 C 451.04346,445.44684 359.76975,513.39693 252.5798,513.39693 Z"
         style="stroke-width:15;stroke-miterlimit:4;stroke-dasharray:none"
         inkscape:connector-curvature="0" />
      <path
         id="path2227"
         d="M 489.10943,340.86147 C 498.74458,314.3891 504,285.81005 504,256 l -3.4202,9.39693 c 0,29.81005 -5.25542,58.3891 -14.89057,84.86147 z"
         style="stroke-width:15;stroke-miterlimit:4;stroke-dasharray:none"
         inkscape:connector-curvature="0" />
      <path
         id="path2229"
         d="M 504,256 C 504,119 393,8 256,8 l -3.4202,9.396926 c 137,0 248,111.000004 248,248.000004 z"
         style="stroke-width:15;stroke-miterlimit:4;stroke-dasharray:none"
         inkscape:connector-curvature="0" />
      <path
         id="path2231"
         d="M 256,456 C 145.5,456 56,366.5 56,256 l -3.420201,9.39693 c 0,110.5 89.500001,200 200.000001,200 z"
         style="stroke-width:15;stroke-miterlimit:4;stroke-dasharray:none"
         inkscape:connector-curvature="0" />
      <path
         id="path2233"
         d="m 56,256 c 0,-24.04786 4.238881,-47.10112 12.010598,-68.45373 l -3.420202,9.39692 c -7.771716,21.35262 -12.010597,44.40588 -12.010597,68.45374 z"
         style="stroke-width:15;stroke-miterlimit:4;stroke-dasharray:none"
         inkscape:connector-curvature="0" />
      <path
         id="path2235"
         d="M 68.010598,187.54627 C 95.94995,110.78353 169.54786,56 256,56 l -3.4202,9.396926 c -86.45214,0 -160.050052,54.783534 -187.989404,131.546264 z"
         style="stroke-width:15;stroke-miterlimit:4;stroke-dasharray:none"
         inkscape:connector-curvature="0" />
      <path
         id="path2237"
         d="m 256,56 c 110.5,0 200,89.5 200,200 l -3.4202,9.39693 c 0,-110.5 -89.5,-200.000004 -200,-200.000004 z"
         style="stroke-width:15;stroke-miterlimit:4;stroke-dasharray:none"
         inkscape:connector-curvature="0" />
      <path
         id="path2239"
         d="m 456,256 c 0,24.04786 -4.23888,47.10112 -12.0106,68.45373 l -3.4202,9.39693 c 7.77172,-21.35262 12.0106,-44.40588 12.0106,-68.45373 z"
         style="stroke-width:15;stroke-miterlimit:4;stroke-dasharray:none"
         inkscape:connector-curvature="0" />
      <path
         id="path2241"
         d="M 443.9894,324.45373 C 416.05005,401.21647 342.45214,456 256,456 l -3.4202,9.39693 c 86.45214,0 160.05005,-54.78353 187.9894,-131.54627 z"
         style="stroke-width:15;stroke-miterlimit:4;stroke-dasharray:none"
         inkscape:connector-curvature="0" />
      <path
         id="path2243"
         d="m 317.8,351.6 -84.9,-61.7 -3.4202,9.39693 84.9,61.7 z"
         style="stroke-width:15;stroke-miterlimit:4;stroke-dasharray:none"
         inkscape:connector-curvature="0" />
      <path
         id="path2245"
         d="m 232.9,289.9 c -3.1,-2.3 -4.9,-5.9 -4.9,-9.7 l -3.4202,9.39693 c 0,3.8 1.8,7.4 4.9,9.7 z"
         style="stroke-width:15;stroke-miterlimit:4;stroke-dasharray:none"
         inkscape:connector-curvature="0" />
      <path
         id="path2247"
         d="M 228,280.2 V 116 l -3.4202,9.39693 v 164.2 z"
         style="stroke-width:15;stroke-miterlimit:4;stroke-dasharray:none"
         inkscape:connector-curvature="0" />
      <path
         id="path2249"
         d="m 228,116 c 0,-1.42896 0.25313,-2.80167 0.71677,-4.0755 l -3.4202,9.39693 c -0.46364,1.27383 -0.71677,2.64654 -0.71677,4.0755 z"
         style="stroke-width:15;stroke-miterlimit:4;stroke-dasharray:none"
         inkscape:connector-curvature="0" />
      <path
         id="path2251"
         d="M 228.71677,111.9245 C 230.39455,107.31483 234.82896,104 240,104 l -3.4202,9.39693 c -5.17104,0 -9.60545,3.31483 -11.28323,7.9245 z"
         style="stroke-width:15;stroke-miterlimit:4;stroke-dasharray:none"
         inkscape:connector-curvature="0" />
      <path
         id="path2253"
         d="m 240,104 h 32 l -3.4202,9.39693 h -32 z"
         style="stroke-width:15;stroke-miterlimit:4;stroke-dasharray:none"
         inkscape:connector-curvature="0" />
      <path
         id="path2255"
         d="m 272,104 c 6.6,0 12,5.4 12,12 l -3.4202,9.39693 c 0,-6.6 -5.4,-12 -12,-12 z"
         style="stroke-width:15;stroke-miterlimit:4;stroke-dasharray:none"
         inkscape:connector-curvature="0" />
      <path
         id="path2257"
         d="m 284,116 v 141.7 l -3.4202,9.39693 v -141.7 z"
         style="stroke-width:15;stroke-miterlimit:4;stroke-dasharray:none"
         inkscape:connector-curvature="0" />
      <path
         id="path2259"
         d="m 284,257.7 66.8,48.6 -3.4202,9.39693 -66.8,-48.6 z"
         style="stroke-width:15;stroke-miterlimit:4;stroke-dasharray:none"
         inkscape:connector-curvature="0" />
      <path
         id="path2261"
         d="m 350.8,306.3 c 4.45397,3.21676 5.9826,8.88263 4.19312,13.7992 l -3.4202,9.39692 c 1.78948,-4.91657 0.26085,-10.58244 -4.19312,-13.79919 z"
         style="stroke-width:15;stroke-miterlimit:4;stroke-dasharray:none"
         inkscape:connector-curvature="0" />
      <path
         id="path2263"
         d="m 354.99312,320.0992 c -0.38009,1.04429 -0.90988,2.05477 -1.59312,3.0008 l -3.4202,9.39693 c 0.68324,-0.94603 1.21303,-1.95652 1.59312,-3.00081 z"
         style="stroke-width:15;stroke-miterlimit:4;stroke-dasharray:none"
         inkscape:connector-curvature="0" />
      <path
         id="path2265"
         d="m 353.4,323.1 -18.8,25.9 -3.4202,9.39693 18.8,-25.9 z"
         style="stroke-width:15;stroke-miterlimit:4;stroke-dasharray:none"
         inkscape:connector-curvature="0" />
      <path
         id="path2267"
         d="m 334.6,349 c -3.9,5.3 -11.4,6.5 -16.8,2.6 l -3.4202,9.39693 c 5.4,3.9 12.9,2.7 16.8,-2.6 z"
         style="stroke-width:15;stroke-miterlimit:4;stroke-dasharray:none"
         inkscape:connector-curvature="0" />
    </g>
    <path
       style="fill:#ffffff;stroke:#709dca;stroke-width:15;stroke-miterlimit:4;stroke-dasharray:none;stroke-opacity:1"
       id="path1481"
       d="M 256,8 C 119,8 8,119 8,256 8,393 119,504 256,504 393,504 504,393 504,256 504,119 393,8 256,8 Z m 0,448 C 145.5,456 56,366.5 56,256 56,145.5 145.5,56 256,56 c 110.5,0 200,89.5 200,200 0,110.5 -89.5,200 -200,200 z M 317.8,351.6 232.9,289.9 C 229.8,287.6 228,284 228,280.2 V 116 c 0,-6.6 5.4,-12 12,-12 h 32 c 6.6,0 12,5.4 12,12 v 141.7 l 66.8,48.6 c 5.4,3.9 6.5,11.4 2.6,16.8 L 334.6,349 c -3.9,5.3 -11.4,6.5 -16.8,2.6 z"
       inkscape:connector-curvature="0" />
  </g>
</svg>
