<?xml version="1.0" encoding="UTF-8" standalone="no"?>
<svg
   xmlns:osb="http://www.openswatchbook.org/uri/2009/osb"
   xmlns:dc="http://purl.org/dc/elements/1.1/"
   xmlns:cc="http://creativecommons.org/ns#"
   xmlns:rdf="http://www.w3.org/1999/02/22-rdf-syntax-ns#"
   xmlns:svg="http://www.w3.org/2000/svg"
   xmlns="http://www.w3.org/2000/svg"
   xmlns:sodipodi="http://sodipodi.sourceforge.net/DTD/sodipodi-0.dtd"
   xmlns:inkscape="http://www.inkscape.org/namespaces/inkscape"
   aria-hidden="true"
   focusable="false"
   data-prefix="fas"
   data-icon="cloud-upload-alt"
   class="svg-inline--fa fa-cloud-upload-alt fa-w-20"
   role="img"
   viewBox="0 0 640 512"
   version="1.1"
   id="svg1428"
   sodipodi:docname="cloud-upload-alt-solid-blue.svg"
   inkscape:version="0.92.4 (5da689c313, 2019-01-14)">
  <metadata
     id="metadata1434">
    <rdf:RDF>
      <cc:Work
         rdf:about="">
        <dc:format>image/svg+xml</dc:format>
        <dc:type
           rdf:resource="http://purl.org/dc/dcmitype/StillImage" />
        <dc:title />
      </cc:Work>
    </rdf:RDF>
  </metadata>
  <defs
     id="defs1432">
    <linearGradient
       id="linearGradient1981"
       osb:paint="solid">
      <stop
         style="stop-color:#709dca;stop-opacity:1;"
         offset="0"
         id="stop1979" />
    </linearGradient>
  </defs>
  <sodipodi:namedview
     pagecolor="#ffffff"
     bordercolor="#666666"
     borderopacity="1"
     objecttolerance="10"
     gridtolerance="10"
     guidetolerance="10"
     inkscape:pageopacity="0"
     inkscape:pageshadow="2"
     inkscape:window-width="1920"
     inkscape:window-height="1001"
     id="namedview1430"
     showgrid="false"
     inkscape:zoom="0.4609375"
     inkscape:cx="-37.966102"
     inkscape:cy="256"
     inkscape:window-x="-9"
     inkscape:window-y="-9"
     inkscape:window-maximized="1"
     inkscape:current-layer="svg1428" />
  <path
     d="m 532.50934,227.56525 c 3.96539,-10.34869 6.18988,-21.66456 6.18988,-33.46402 0,-51.25991 -41.58823,-92.84815 -92.84815,-92.84815 -19.05322,0 -36.84912,5.80303 -51.55007,15.66813 -26.79056,-46.424076 -76.79316,-77.566894 -134.14623,-77.566894 -85.49767,0 -154.74692,69.249244 -154.74692,154.746914 0,2.61136 0.0968,5.22272 0.19343,7.83406 -54.161413,19.05322 -93.041575,70.70001 -93.041575,131.43816 0,76.88988 62.382352,139.27223 139.272225,139.27223 h 355.91791 c 68.37879,0 123.79753,-55.41874 123.79753,-123.79754 0,-59.86771 -42.5554,-109.8703 -99.03803,-121.28289 z m -139.46566,59.38413 h -63.25279 v 108.32284 c 0,8.51109 -6.96362,15.4747 -15.4747,15.4747 h -46.42407 c -8.51109,0 -15.47469,-6.96361 -15.47469,-15.4747 V 286.94938 h -63.25281 c -13.83051,0 -20.69738,-16.6353 -10.92899,-26.4037 L 280.17516,158.60615 c 5.99644,-5.99644 15.86156,-5.99644 21.858,0 l 101.93952,101.93953 c 9.7684,9.7684 2.8048,26.4037 -10.929,26.4037 z"
     id="path1426"
     style="fill:#ffffff;stroke:#709dca;stroke-width:25;stroke-miterlimit:4;stroke-dasharray:none;stroke-opacity:1"
     inkscape:connector-curvature="0" />
</svg>
