<?xml version="1.0" encoding="UTF-8" standalone="no"?>
<svg
   xmlns:osb="http://www.openswatchbook.org/uri/2009/osb"
   xmlns:dc="http://purl.org/dc/elements/1.1/"
   xmlns:cc="http://creativecommons.org/ns#"
   xmlns:rdf="http://www.w3.org/1999/02/22-rdf-syntax-ns#"
   xmlns:svg="http://www.w3.org/2000/svg"
   xmlns="http://www.w3.org/2000/svg"
   xmlns:sodipodi="http://sodipodi.sourceforge.net/DTD/sodipodi-0.dtd"
   xmlns:inkscape="http://www.inkscape.org/namespaces/inkscape"
   aria-hidden="true"
   focusable="false"
   data-prefix="fas"
   data-icon="rocket"
   class="svg-inline--fa fa-rocket fa-w-16"
   role="img"
   viewBox="0 0 512 512"
   version="1.1"
   id="svg827"
   sodipodi:docname="rocket-solid-blue.svg"
   inkscape:version="0.92.4 (5da689c313, 2019-01-14)">
  <metadata
     id="metadata833">
    <rdf:RDF>
      <cc:Work
         rdf:about="">
        <dc:format>image/svg+xml</dc:format>
        <dc:type
           rdf:resource="http://purl.org/dc/dcmitype/StillImage" />
        <dc:title></dc:title>
      </cc:Work>
    </rdf:RDF>
  </metadata>
  <defs
     id="defs831">
    <linearGradient
       id="linearGradient861"
       osb:paint="solid">
      <stop
         style="stop-color:#709dca;stop-opacity:1;"
         offset="0"
         id="stop859" />
    </linearGradient>
  </defs>
  <sodipodi:namedview
     pagecolor="#ffffff"
     bordercolor="#666666"
     borderopacity="1"
     objecttolerance="10"
     gridtolerance="10"
     guidetolerance="10"
     inkscape:pageopacity="0"
     inkscape:pageshadow="2"
     inkscape:window-width="1920"
     inkscape:window-height="1001"
     id="namedview829"
     showgrid="false"
     inkscape:zoom="1.578125"
     inkscape:cx="256"
     inkscape:cy="281.34653"
     inkscape:window-x="-9"
     inkscape:window-y="-9"
     inkscape:window-maximized="1"
     inkscape:current-layer="svg827" />
  <path
     d="m 487.41177,36.01161 c -1.11246,-5.17324 -6.22723,-10.288027 -11.41691,-11.398666 -30.11322,-6.459245 -53.69057,-6.459245 -77.16555,-6.459245 -96.55055,0 -154.44983,51.63011 -197.67517,119.715231 h -97.46939 c -15.289537,0.0146 -33.255192,11.10639 -40.110816,24.77018 l -46.23576,92.41688 a 26.561817,26.561817 0 0 0 -2.352797,10.01037 22.454714,22.454714 0 0 0 22.452048,22.4466 h 97.091255 l -21.01991,21.01446 c -10.62959,10.62598 -12.1549,30.16994 0,42.32121 l 47.60945,47.61135 c 10.43415,10.46339 30.07488,12.30472 42.3467,0 l 21.01991,-21.01446 v 97.12249 a 22.454714,22.454714 0 0 0 22.45204,22.4466 26.710843,26.710843 0 0 0 10.01399,-2.3528 l 92.33817,-46.19383 c 13.68203,-6.82458 24.79205,-24.78479 24.79205,-40.0853 v -97.67781 c 67.89867,-43.31493 119.7479,-101.38969 119.7479,-197.43077 0.0877,-23.571846 0.0877,-47.143701 -6.41721,-77.26249 z M 374.16878,175.27994 a 37.411009,37.411009 0 1 1 37.42005,-37.41101 37.432726,37.432726 0 0 1 -37.42005,37.41101 z"
     id="path825"
     style="fill:#ffffff;stroke:#709dca;stroke-width:24.7442894;stroke-miterlimit:4;stroke-dasharray:none;stroke-opacity:1"
     inkscape:connector-curvature="0" />
</svg>
