<?xml version="1.0" encoding="UTF-8" standalone="no"?>
<svg
   xmlns:dc="http://purl.org/dc/elements/1.1/"
   xmlns:cc="http://creativecommons.org/ns#"
   xmlns:rdf="http://www.w3.org/1999/02/22-rdf-syntax-ns#"
   xmlns:svg="http://www.w3.org/2000/svg"
   xmlns="http://www.w3.org/2000/svg"
   xmlns:sodipodi="http://sodipodi.sourceforge.net/DTD/sodipodi-0.dtd"
   xmlns:inkscape="http://www.inkscape.org/namespaces/inkscape"
   aria-hidden="true"
   focusable="false"
   data-prefix="fas"
   data-icon="graduation-cap"
   class="svg-inline--fa fa-graduation-cap fa-w-20"
   role="img"
   viewBox="0 0 640 512"
   version="1.1"
   id="svg3850"
   sodipodi:docname="graduation-cap-solid-blue.svg"
   inkscape:version="0.92.4 (5da689c313, 2019-01-14)">
  <metadata
     id="metadata3856">
    <rdf:RDF>
      <cc:Work
         rdf:about="">
        <dc:format>image/svg+xml</dc:format>
        <dc:type
           rdf:resource="http://purl.org/dc/dcmitype/StillImage" />
        <dc:title></dc:title>
      </cc:Work>
    </rdf:RDF>
  </metadata>
  <defs
     id="defs3854" />
  <sodipodi:namedview
     pagecolor="#ffffff"
     bordercolor="#666666"
     borderopacity="1"
     objecttolerance="10"
     gridtolerance="10"
     guidetolerance="10"
     inkscape:pageopacity="0"
     inkscape:pageshadow="2"
     inkscape:window-width="1920"
     inkscape:window-height="1001"
     id="namedview3852"
     showgrid="false"
     inkscape:zoom="0.4609375"
     inkscape:cx="320"
     inkscape:cy="256"
     inkscape:window-x="-9"
     inkscape:window-y="-9"
     inkscape:window-maximized="1"
     inkscape:current-layer="svg3850" />
  <g
     id="g6011"
     transform="matrix(0.95034899,0,0,1,18.943892,0)">
    <g
       id="g6008"
       style="fill:#ffffff;stroke:#709dca;stroke-width:15;stroke-miterlimit:4;stroke-dasharray:none;stroke-opacity:1">
      <path
         id="path5938"
         d="M 622.34,153.2 343.4,67.5 l -5.1303,14.095389 278.94,85.700001 z"
         inkscape:connector-curvature="0" />
      <path
         id="path5940"
         d="m 343.4,67.5 c -15.2,-4.67 -31.6,-4.67 -46.79,0 l -5.1303,14.095389 c 15.19,-4.67 31.59,-4.67 46.79,0 z"
         inkscape:connector-curvature="0" />
      <path
         id="path5942"
         d="M 296.61,67.5 17.66,153.2 12.529698,167.29539 291.4797,81.595389 Z"
         inkscape:connector-curvature="0" />
      <path
         id="path5944"
         d="m 17.66,153.2 c -8.4523163,2.59602 -13.8697282,8.27335 -16.2522356,14.81924 l -5.1303021,14.09539 c 2.3825074,-6.54589 7.7999192,-12.22322 16.2522357,-14.81924 z"
         inkscape:connector-curvature="0" />
      <path
         id="path5946"
         d="M 1.4077644,168.01924 C -2.8450955,179.70387 2.5723163,194.15602 17.66,198.79 l -5.130302,14.09539 C -2.5579858,208.25141 -7.9753977,193.79926 -3.7225377,182.11463 Z"
         inkscape:connector-curvature="0" />
      <path
         id="path5948"
         d="m 17.66,198.79 48.63,14.94 -5.130302,14.09539 -48.63,-14.94 z"
         inkscape:connector-curvature="0" />
      <path
         id="path5950"
         d="m 66.29,213.73 c -5.68082,7.02249 -10.196616,14.86703 -13.275735,23.32684 l -5.130303,14.09539 c 3.07912,-8.45981 7.594916,-16.30435 13.275736,-23.32684 z"
         inkscape:connector-curvature="0" />
      <path
         id="path5952"
         d="M 53.014265,237.05684 C 50.310028,244.48667 48.713933,252.39107 48.41,260.63 l -5.130302,14.09539 c 0.303933,-8.23893 1.900028,-16.14333 4.604264,-23.57316 z"
         inkscape:connector-curvature="0" />
      <path
         id="path5954"
         d="m 48.41,260.63 c -6.660609,3.81792 -11.957828,9.75986 -14.591321,16.99532 l -5.130302,14.09539 c 2.633493,-7.23546 7.930712,-13.1774 14.591321,-16.99532 z"
         inkscape:connector-curvature="0" />
      <path
         id="path5956"
         d="M 33.818679,277.62532 C 32.644632,280.85099 32,284.33374 32,288 l -5.130302,14.09539 c 0,-3.66626 0.644632,-7.14901 1.818679,-10.37468 z"
         inkscape:connector-curvature="0" />
      <path
         id="path5958"
         d="m 32,288 c 0,10.78 5.68,19.85 13.86,25.65 l -5.130302,14.09539 c -8.18,-5.8 -13.86,-14.87 -13.86,-25.65 z"
         inkscape:connector-curvature="0" />
      <path
         id="path5960"
         d="m 45.86,313.65 -25.53,114.88 -5.130302,14.09539 25.53,-114.88 z"
         inkscape:connector-curvature="0" />
      <path
         id="path5962"
         d="M 20.33,428.53 C 18.11,438.52 25.71,448 35.94,448 l -5.130302,14.09539 c -10.23,0 -17.83,-9.48 -15.61,-19.47 z"
         inkscape:connector-curvature="0" />
      <path
         id="path5964"
         d="m 35.94,448 h 56.11 l -5.130302,14.09539 h -56.11 z"
         inkscape:connector-curvature="0" />
      <path
         id="path5966"
         d="m 92.05,448 c 7.048808,0 12.84668,-4.492 15.0517,-10.55023 l -5.13031,14.09539 c -2.205013,6.05823 -8.002884,10.55023 -15.051692,10.55023 z"
         inkscape:connector-curvature="0" />
      <path
         id="path5968"
         d="m 107.1017,437.44977 c 0.99827,-2.74274 1.26014,-5.80649 0.5683,-8.91977 l -5.1303,14.09539 c 0.69184,3.11328 0.42997,6.17703 -0.56831,8.91977 z"
         inkscape:connector-curvature="0" />
      <path
         id="path5970"
         d="m 107.67,428.53 -25.53,-114.88 -5.130302,14.09539 25.530002,114.88 z"
         inkscape:connector-curvature="0" />
      <path
         id="path5972"
         d="m 82.14,313.65 c 5.444105,-3.86012 9.780857,-9.16867 12.072807,-15.46575 l -5.130302,14.09539 c -2.29195,6.29708 -6.628702,11.60563 -12.072807,15.46575 z"
         inkscape:connector-curvature="0" />
      <path
         id="path5974"
         d="M 94.212807,298.18425 C 95.36461,295.0197 96,291.60549 96,288 l -5.130302,14.09539 c 0,3.60549 -0.63539,7.0197 -1.787193,10.18425 z"
         inkscape:connector-curvature="0" />
      <path
         id="path5976"
         d="m 96,288 c 0,-11.57 -6.47,-21.25 -15.66,-26.87 l -5.130302,14.09539 c 9.19,5.62 15.66,15.3 15.66,26.87 z"
         inkscape:connector-curvature="0" />
      <path
         id="path5978"
         d="m 80.34,261.13 c 0.243045,-4.80333 1.193793,-9.42871 2.775386,-13.77411 l -5.130302,14.09539 c -1.581594,4.3454 -2.532341,8.97078 -2.775386,13.77411 z"
         inkscape:connector-curvature="0" />
      <path
         id="path5980"
         d="M 83.115386,247.35589 C 86.479431,238.11326 92.697497,230.13732 101.03,224.41 l -5.130302,14.09539 c -8.332504,5.72732 -14.550569,13.70326 -17.914614,22.94589 z"
         inkscape:connector-curvature="0" />
      <path
         id="path5982"
         d="m 101.03,224.41 195.57,60.09 -5.1303,14.09539 -195.570002,-60.09 z"
         inkscape:connector-curvature="0" />
      <path
         id="path5984"
         d="m 296.6,284.5 c 9.06,2.78 26.44,6.25 46.79,0 l -5.1303,14.09539 c -20.35,6.25 -37.73,2.78 -46.79,0 z"
         inkscape:connector-curvature="0" />
      <path
         id="path5986"
         d="m 343.39,284.5 278.95,-85.7 -5.1303,14.09539 -278.95,85.7 z"
         inkscape:connector-curvature="0" />
      <path
         id="path5988"
         d="m 622.34,198.8 c 8.45705,-2.59996 13.87709,-8.27949 16.26011,-14.82679 l -5.1303,14.09539 c -2.38302,6.5473 -7.80306,12.22683 -16.26011,14.82679 z"
         inkscape:connector-curvature="0" />
      <path
         id="path5990"
         d="M 638.60011,183.97321 C 642.85298,172.28854 637.43295,157.84004 622.34,153.2 l -5.1303,14.09539 c 15.09295,4.64004 20.51298,19.08853 16.26011,30.77321 z"
         inkscape:connector-curvature="0" />
      <path
         id="path5992"
         d="m 352.79,315.09 c -28.53,8.76 -52.84,3.92 -65.59,0 l -5.1303,14.09539 c 12.75,3.92 37.06,8.76 65.59,0 z"
         inkscape:connector-curvature="0" />
      <path
         id="path5994"
         d="m 287.2,315.09 -145.02,-44.55 -5.1303,14.09539 145.02,44.55 z"
         inkscape:connector-curvature="0" />
      <path
         id="path5996"
         d="M 142.18,270.54 128,384 l -5.1303,14.09539 14.18,-113.46 z"
         inkscape:connector-curvature="0" />
      <path
         id="path5998"
         d="m 128,384 c 0,35.35 85.96,64 192,64 l -5.1303,14.09539 c -106.04,0 -192,-28.65 -192,-64 z"
         inkscape:connector-curvature="0" />
      <path
         id="path6000"
         d="m 320,448 c 98.12976,0 179.06359,-24.53504 190.59233,-56.20998 l -5.1303,14.09539 c -11.52874,31.67494 -92.46257,56.20998 -190.59233,56.20998 z"
         inkscape:connector-curvature="0" />
      <path
         id="path6002"
         d="M 510.59233,391.79002 C 511.52166,389.2367 512,386.63699 512,384 l -5.1303,14.09539 c 0,2.63699 -0.47834,5.2367 -1.40767,7.79002 z"
         inkscape:connector-curvature="0" />
      <path
         id="path6004"
         d="m 512,384 -14.18,-113.47 -5.1303,14.09539 14.18,113.47 z"
         inkscape:connector-curvature="0" />
      <path
         id="path6006"
         d="m 497.82,270.53 -145.03,44.56 -5.1303,14.09539 145.03,-44.56 z"
         inkscape:connector-curvature="0" />
    </g>
    <g
       id="g6164">
      <g
         id="g6161"
         style="fill:#ffffff;stroke:#709dca;stroke-width:15;stroke-miterlimit:4;stroke-dasharray:none;stroke-opacity:1">
        <path
           id="path6091"
           d="M 622.34,153.2 343.4,67.5 l -5.1303,14.095389 278.94,85.700001 z"
           inkscape:connector-curvature="0" />
        <path
           id="path6093"
           d="m 343.4,67.5 c -15.2,-4.67 -31.6,-4.67 -46.79,0 l -5.1303,14.095389 c 15.19,-4.67 31.59,-4.67 46.79,0 z"
           inkscape:connector-curvature="0" />
        <path
           id="path6095"
           d="M 296.61,67.5 17.66,153.2 12.529698,167.29539 291.4797,81.595389 Z"
           inkscape:connector-curvature="0" />
        <path
           id="path6097"
           d="m 17.66,153.2 c -8.4523163,2.59602 -13.8697282,8.27335 -16.2522356,14.81924 l -5.1303021,14.09539 c 2.3825074,-6.54589 7.7999192,-12.22322 16.2522357,-14.81924 z"
           inkscape:connector-curvature="0" />
        <path
           id="path6099"
           d="M 1.4077644,168.01924 C -2.8450955,179.70387 2.5723163,194.15602 17.66,198.79 l -5.130302,14.09539 C -2.5579858,208.25141 -7.9753977,193.79926 -3.7225377,182.11463 Z"
           inkscape:connector-curvature="0" />
        <path
           id="path6101"
           d="m 17.66,198.79 48.63,14.94 -5.130302,14.09539 -48.63,-14.94 z"
           inkscape:connector-curvature="0" />
        <path
           id="path6103"
           d="m 66.29,213.73 c -5.68082,7.02249 -10.196616,14.86703 -13.275735,23.32684 l -5.130303,14.09539 c 3.07912,-8.45981 7.594916,-16.30435 13.275736,-23.32684 z"
           inkscape:connector-curvature="0" />
        <path
           id="path6105"
           d="M 53.014265,237.05684 C 50.310028,244.48667 48.713933,252.39107 48.41,260.63 l -5.130302,14.09539 c 0.303933,-8.23893 1.900028,-16.14333 4.604264,-23.57316 z"
           inkscape:connector-curvature="0" />
        <path
           id="path6107"
           d="m 48.41,260.63 c -6.660609,3.81792 -11.957828,9.75986 -14.591321,16.99532 l -5.130302,14.09539 c 2.633493,-7.23546 7.930712,-13.1774 14.591321,-16.99532 z"
           inkscape:connector-curvature="0" />
        <path
           id="path6109"
           d="M 33.818679,277.62532 C 32.644632,280.85099 32,284.33374 32,288 l -5.130302,14.09539 c 0,-3.66626 0.644632,-7.14901 1.818679,-10.37468 z"
           inkscape:connector-curvature="0" />
        <path
           id="path6111"
           d="m 32,288 c 0,10.78 5.68,19.85 13.86,25.65 l -5.130302,14.09539 c -8.18,-5.8 -13.86,-14.87 -13.86,-25.65 z"
           inkscape:connector-curvature="0" />
        <path
           id="path6113"
           d="m 45.86,313.65 -25.53,114.88 -5.130302,14.09539 25.53,-114.88 z"
           inkscape:connector-curvature="0" />
        <path
           id="path6115"
           d="M 20.33,428.53 C 18.11,438.52 25.71,448 35.94,448 l -5.130302,14.09539 c -10.23,0 -17.83,-9.48 -15.61,-19.47 z"
           inkscape:connector-curvature="0" />
        <path
           id="path6117"
           d="m 35.94,448 h 56.11 l -5.130302,14.09539 h -56.11 z"
           inkscape:connector-curvature="0" />
        <path
           id="path6119"
           d="m 92.05,448 c 7.048808,0 12.84668,-4.492 15.0517,-10.55023 l -5.13031,14.09539 c -2.205013,6.05823 -8.002884,10.55023 -15.051692,10.55023 z"
           inkscape:connector-curvature="0" />
        <path
           id="path6121"
           d="m 107.1017,437.44977 c 0.99827,-2.74274 1.26014,-5.80649 0.5683,-8.91977 l -5.1303,14.09539 c 0.69184,3.11328 0.42997,6.17703 -0.56831,8.91977 z"
           inkscape:connector-curvature="0" />
        <path
           id="path6123"
           d="m 107.67,428.53 -25.53,-114.88 -5.130302,14.09539 25.530002,114.88 z"
           inkscape:connector-curvature="0" />
        <path
           id="path6125"
           d="m 82.14,313.65 c 5.444105,-3.86012 9.780857,-9.16867 12.072807,-15.46575 l -5.130302,14.09539 c -2.29195,6.29708 -6.628702,11.60563 -12.072807,15.46575 z"
           inkscape:connector-curvature="0" />
        <path
           id="path6127"
           d="M 94.212807,298.18425 C 95.36461,295.0197 96,291.60549 96,288 l -5.130302,14.09539 c 0,3.60549 -0.63539,7.0197 -1.787193,10.18425 z"
           inkscape:connector-curvature="0" />
        <path
           id="path6129"
           d="m 96,288 c 0,-11.57 -6.47,-21.25 -15.66,-26.87 l -5.130302,14.09539 c 9.19,5.62 15.66,15.3 15.66,26.87 z"
           inkscape:connector-curvature="0" />
        <path
           id="path6131"
           d="m 80.34,261.13 c 0.243045,-4.80333 1.193793,-9.42871 2.775386,-13.77411 l -5.130302,14.09539 c -1.581594,4.3454 -2.532341,8.97078 -2.775386,13.77411 z"
           inkscape:connector-curvature="0" />
        <path
           id="path6133"
           d="M 83.115386,247.35589 C 86.479431,238.11326 92.697497,230.13732 101.03,224.41 l -5.130302,14.09539 c -8.332504,5.72732 -14.550569,13.70326 -17.914614,22.94589 z"
           inkscape:connector-curvature="0" />
        <path
           id="path6135"
           d="m 101.03,224.41 195.57,60.09 -5.1303,14.09539 -195.570002,-60.09 z"
           inkscape:connector-curvature="0" />
        <path
           id="path6137"
           d="m 296.6,284.5 c 9.06,2.78 26.44,6.25 46.79,0 l -5.1303,14.09539 c -20.35,6.25 -37.73,2.78 -46.79,0 z"
           inkscape:connector-curvature="0" />
        <path
           id="path6139"
           d="m 343.39,284.5 278.95,-85.7 -5.1303,14.09539 -278.95,85.7 z"
           inkscape:connector-curvature="0" />
        <path
           id="path6141"
           d="m 622.34,198.8 c 8.45705,-2.59996 13.87709,-8.27949 16.26011,-14.82679 l -5.1303,14.09539 c -2.38302,6.5473 -7.80306,12.22683 -16.26011,14.82679 z"
           inkscape:connector-curvature="0" />
        <path
           id="path6143"
           d="M 638.60011,183.97321 C 642.85298,172.28854 637.43295,157.84004 622.34,153.2 l -5.1303,14.09539 c 15.09295,4.64004 20.51298,19.08853 16.26011,30.77321 z"
           inkscape:connector-curvature="0" />
        <path
           id="path6145"
           d="m 352.79,315.09 c -28.53,8.76 -52.84,3.92 -65.59,0 l -5.1303,14.09539 c 12.75,3.92 37.06,8.76 65.59,0 z"
           inkscape:connector-curvature="0" />
        <path
           id="path6147"
           d="m 287.2,315.09 -145.02,-44.55 -5.1303,14.09539 145.02,44.55 z"
           inkscape:connector-curvature="0" />
        <path
           id="path6149"
           d="M 142.18,270.54 128,384 l -5.1303,14.09539 14.18,-113.46 z"
           inkscape:connector-curvature="0" />
        <path
           id="path6151"
           d="m 128,384 c 0,35.35 85.96,64 192,64 l -5.1303,14.09539 c -106.04,0 -192,-28.65 -192,-64 z"
           inkscape:connector-curvature="0" />
        <path
           id="path6153"
           d="m 320,448 c 98.12976,0 179.06359,-24.53504 190.59233,-56.20998 l -5.1303,14.09539 c -11.52874,31.67494 -92.46257,56.20998 -190.59233,56.20998 z"
           inkscape:connector-curvature="0" />
        <path
           id="path6155"
           d="M 510.59233,391.79002 C 511.52166,389.2367 512,386.63699 512,384 l -5.1303,14.09539 c 0,2.63699 -0.47834,5.2367 -1.40767,7.79002 z"
           inkscape:connector-curvature="0" />
        <path
           id="path6157"
           d="m 512,384 -14.18,-113.47 -5.1303,14.09539 14.18,113.47 z"
           inkscape:connector-curvature="0" />
        <path
           id="path6159"
           d="m 497.82,270.53 -145.03,44.56 -5.1303,14.09539 145.03,-44.56 z"
           inkscape:connector-curvature="0" />
      </g>
      <g
         id="g7698">
        <g
           id="g7695"
           style="fill:#ffffff;stroke:#709dca;stroke-width:19;stroke-miterlimit:4;stroke-dasharray:none;stroke-opacity:1">
          <path
             id="path7625"
             d="M 622.34,153.2 343.4,67.5 l -6.15636,16.914467 278.94,85.700003 z"
             inkscape:connector-curvature="0" />
          <path
             id="path7627"
             d="m 343.4,67.5 c -15.2,-4.67 -31.6,-4.67 -46.79,0 l -6.15636,16.914467 c 15.19,-4.67 31.59,-4.67 46.79,0 z"
             inkscape:connector-curvature="0" />
          <path
             id="path7629"
             d="M 296.61,67.5 17.66,153.2 11.503637,170.11447 290.45364,84.414467 Z"
             inkscape:connector-curvature="0" />
          <path
             id="path7631"
             d="m 17.66,153.2 c -8.4523163,2.59602 -13.8697282,8.27335 -16.2522356,14.81924 l -6.1563625,16.91446 c 2.3825073,-6.54588 7.7999192,-12.22322 16.2522351,-14.81923 z"
             inkscape:connector-curvature="0" />
          <path
             id="path7633"
             d="M 1.4077644,168.01924 C -2.8450955,179.70387 2.5723163,194.15602 17.66,198.79 l -6.156363,16.91447 C -3.5840463,211.07048 -9.0014581,196.61834 -4.7485981,184.9337 Z"
             inkscape:connector-curvature="0" />
          <path
             id="path7635"
             d="m 17.66,198.79 48.63,14.94 -6.156363,16.91447 -48.63,-14.94 z"
             inkscape:connector-curvature="0" />
          <path
             id="path7637"
             d="m 66.29,213.73 c -5.68082,7.02249 -10.196616,14.86703 -13.275735,23.32684 l -6.156363,16.91446 c 3.079119,-8.45981 7.594915,-16.30434 13.275735,-23.32683 z"
             inkscape:connector-curvature="0" />
          <path
             id="path7639"
             d="M 53.014265,237.05684 C 50.310028,244.48667 48.713933,252.39107 48.41,260.63 l -6.156363,16.91447 c 0.303934,-8.23893 1.900029,-16.14334 4.604265,-23.57317 z"
             inkscape:connector-curvature="0" />
          <path
             id="path7641"
             d="m 48.41,260.63 c -6.660609,3.81792 -11.957828,9.75986 -14.591321,16.99532 l -6.156362,16.91447 c 2.633492,-7.23547 7.930711,-13.1774 14.59132,-16.99532 z"
             inkscape:connector-curvature="0" />
          <path
             id="path7643"
             d="M 33.818679,277.62532 C 32.644632,280.85099 32,284.33374 32,288 l -6.156363,16.91447 c 0,-3.66626 0.644632,-7.14902 1.81868,-10.37468 z"
             inkscape:connector-curvature="0" />
          <path
             id="path7645"
             d="m 32,288 c 0,10.78 5.68,19.85 13.86,25.65 l -6.156363,16.91447 c -8.18,-5.8 -13.86,-14.87 -13.86,-25.65 z"
             inkscape:connector-curvature="0" />
          <path
             id="path7647"
             d="m 45.86,313.65 -25.53,114.88 -6.156363,16.91447 25.53,-114.88 z"
             inkscape:connector-curvature="0" />
          <path
             id="path7649"
             d="M 20.33,428.53 C 18.11,438.52 25.71,448 35.94,448 l -6.156363,16.91447 c -10.23,0 -17.83,-9.48 -15.61,-19.47 z"
             inkscape:connector-curvature="0" />
          <path
             id="path7651"
             d="m 35.94,448 h 56.11 l -6.156363,16.91447 h -56.11 z"
             inkscape:connector-curvature="0" />
          <path
             id="path7653"
             d="m 92.05,448 c 7.048808,0 12.84668,-4.492 15.0517,-10.55023 l -6.15637,16.91446 c -2.205014,6.05824 -8.002885,10.55024 -15.051693,10.55024 z"
             inkscape:connector-curvature="0" />
          <path
             id="path7655"
             d="m 107.1017,437.44977 c 0.99827,-2.74274 1.26014,-5.80649 0.5683,-8.91977 l -6.15636,16.91447 c 0.69184,3.11328 0.42997,6.17703 -0.56831,8.91976 z"
             inkscape:connector-curvature="0" />
          <path
             id="path7657"
             d="m 107.67,428.53 -25.53,-114.88 -6.156363,16.91447 25.530003,114.88 z"
             inkscape:connector-curvature="0" />
          <path
             id="path7659"
             d="m 82.14,313.65 c 5.444105,-3.86012 9.780857,-9.16867 12.072807,-15.46575 l -6.156362,16.91447 c -2.291951,6.29708 -6.628702,11.60562 -12.072808,15.46575 z"
             inkscape:connector-curvature="0" />
          <path
             id="path7661"
             d="M 94.212807,298.18425 C 95.36461,295.0197 96,291.60549 96,288 l -6.156363,16.91447 c 0,3.60549 -0.63539,7.0197 -1.787192,10.18425 z"
             inkscape:connector-curvature="0" />
          <path
             id="path7663"
             d="m 96,288 c 0,-11.57 -6.47,-21.25 -15.66,-26.87 l -6.156363,16.91447 c 9.19,5.62 15.66,15.3 15.66,26.87 z"
             inkscape:connector-curvature="0" />
          <path
             id="path7665"
             d="m 80.34,261.13 c 0.243045,-4.80333 1.193793,-9.42871 2.775386,-13.77411 l -6.156362,16.91447 c -1.581594,4.34539 -2.532342,8.97078 -2.775387,13.77411 z"
             inkscape:connector-curvature="0" />
          <path
             id="path7667"
             d="M 83.115386,247.35589 C 86.479431,238.11326 92.697497,230.13732 101.03,224.41 l -6.156363,16.91447 c -8.332503,5.72732 -14.550568,13.70325 -17.914613,22.94589 z"
             inkscape:connector-curvature="0" />
          <path
             id="path7669"
             d="m 101.03,224.41 195.57,60.09 -6.15636,16.91447 -195.570003,-60.09 z"
             inkscape:connector-curvature="0" />
          <path
             id="path7671"
             d="m 296.6,284.5 c 9.06,2.78 26.44,6.25 46.79,0 l -6.15636,16.91447 c -20.35,6.25 -37.73,2.78 -46.79,0 z"
             inkscape:connector-curvature="0" />
          <path
             id="path7673"
             d="m 343.39,284.5 278.95,-85.7 -6.15636,16.91447 -278.95,85.7 z"
             inkscape:connector-curvature="0" />
          <path
             id="path7675"
             d="m 622.34,198.8 c 8.45705,-2.59996 13.87709,-8.27949 16.26011,-14.82679 l -6.15636,16.91447 c -2.38302,6.54729 -7.80306,12.22683 -16.26011,14.82679 z"
             inkscape:connector-curvature="0" />
          <path
             id="path7677"
             d="M 638.60011,183.97321 C 642.85298,172.28854 637.43295,157.84004 622.34,153.2 l -6.15636,16.91447 c 15.09294,4.64004 20.51298,19.08853 16.26011,30.77321 z"
             inkscape:connector-curvature="0" />
          <path
             id="path7679"
             d="m 352.79,315.09 c -28.53,8.76 -52.84,3.92 -65.59,0 l -6.15636,16.91447 c 12.75,3.92 37.06,8.76 65.59,0 z"
             inkscape:connector-curvature="0" />
          <path
             id="path7681"
             d="m 287.2,315.09 -145.02,-44.55 -6.15636,16.91447 145.02,44.55 z"
             inkscape:connector-curvature="0" />
          <path
             id="path7683"
             d="M 142.18,270.54 128,384 l -6.15636,16.91447 14.18,-113.46 z"
             inkscape:connector-curvature="0" />
          <path
             id="path7685"
             d="m 128,384 c 0,35.35 85.96,64 192,64 l -6.15636,16.91447 c -106.04,0 -192,-28.65 -192,-64 z"
             inkscape:connector-curvature="0" />
          <path
             id="path7687"
             d="m 320,448 c 98.12976,0 179.06359,-24.53504 190.59233,-56.20998 l -6.15636,16.91447 c -11.52874,31.67494 -92.46257,56.20998 -190.59233,56.20998 z"
             inkscape:connector-curvature="0" />
          <path
             id="path7689"
             d="M 510.59233,391.79002 C 511.52166,389.2367 512,386.63699 512,384 l -6.15636,16.91447 c 0,2.63699 -0.47834,5.2367 -1.40767,7.79002 z"
             inkscape:connector-curvature="0" />
          <path
             id="path7691"
             d="m 512,384 -14.18,-113.47 -6.15636,16.91447 14.18,113.47 z"
             inkscape:connector-curvature="0" />
          <path
             id="path7693"
             d="m 497.82,270.53 -145.03,44.56 -6.15636,16.91447 145.03,-44.56 z"
             inkscape:connector-curvature="0" />
        </g>
        <path
           style="fill:#ffffff;stroke:#709dca;stroke-width:18;stroke-miterlimit:4;stroke-dasharray:none;stroke-opacity:1"
           id="path3848"
           d="M 622.34,153.2 343.4,67.5 c -15.2,-4.67 -31.6,-4.67 -46.79,0 L 17.66,153.2 c -23.54,7.23 -23.54,38.36 0,45.59 l 48.63,14.94 C 55.62,226.92 49.06,243.01 48.41,260.63 38.78,266.15 32,276.11 32,288 c 0,10.78 5.68,19.85 13.86,25.65 L 20.33,428.53 C 18.11,438.52 25.71,448 35.94,448 h 56.11 c 10.24,0 17.84,-9.48 15.62,-19.47 L 82.14,313.65 C 90.32,307.85 96,298.78 96,288 c 0,-11.57 -6.47,-21.25 -15.66,-26.87 0.76,-15.02 8.44,-28.3 20.69,-36.72 L 296.6,284.5 c 9.06,2.78 26.44,6.25 46.79,0 l 278.95,-85.7 c 23.55,-7.24 23.55,-38.36 0,-45.6 z M 352.79,315.09 c -28.53,8.76 -52.84,3.92 -65.59,0 L 142.18,270.54 128,384 c 0,35.35 85.96,64 192,64 106.04,0 192,-28.65 192,-64 L 497.82,270.53 Z"
           inkscape:connector-curvature="0" />
      </g>
    </g>
  </g>
</svg>
