<?xml version="1.0" encoding="UTF-8" standalone="no"?>
<svg
   xmlns:osb="http://www.openswatchbook.org/uri/2009/osb"
   xmlns:dc="http://purl.org/dc/elements/1.1/"
   xmlns:cc="http://creativecommons.org/ns#"
   xmlns:rdf="http://www.w3.org/1999/02/22-rdf-syntax-ns#"
   xmlns:svg="http://www.w3.org/2000/svg"
   xmlns="http://www.w3.org/2000/svg"
   xmlns:sodipodi="http://sodipodi.sourceforge.net/DTD/sodipodi-0.dtd"
   xmlns:inkscape="http://www.inkscape.org/namespaces/inkscape"
   aria-hidden="true"
   focusable="false"
   data-prefix="fas"
   data-icon="headphones"
   class="svg-inline--fa fa-headphones fa-w-16"
   role="img"
   viewBox="0 0 512 512"
   version="1.1"
   id="svg827"
   sodipodi:docname="headphones-solid-blue.svg"
   inkscape:version="0.92.4 (5da689c313, 2019-01-14)">
  <metadata
     id="metadata833">
    <rdf:RDF>
      <cc:Work
         rdf:about="">
        <dc:format>image/svg+xml</dc:format>
        <dc:type
           rdf:resource="http://purl.org/dc/dcmitype/StillImage" />
        <dc:title />
      </cc:Work>
    </rdf:RDF>
  </metadata>
  <defs
     id="defs831">
    <linearGradient
       id="linearGradient837"
       osb:paint="solid">
      <stop
         style="stop-color:#709dca;stop-opacity:1;"
         offset="0"
         id="stop835" />
    </linearGradient>
  </defs>
  <sodipodi:namedview
     pagecolor="#ffffff"
     bordercolor="#666666"
     borderopacity="1"
     objecttolerance="10"
     gridtolerance="10"
     guidetolerance="10"
     inkscape:pageopacity="0"
     inkscape:pageshadow="2"
     inkscape:window-width="1920"
     inkscape:window-height="1001"
     id="namedview829"
     showgrid="false"
     inkscape:zoom="1.578125"
     inkscape:cx="151.44554"
     inkscape:cy="256"
     inkscape:window-x="-9"
     inkscape:window-y="-9"
     inkscape:window-maximized="1"
     inkscape:current-layer="svg827" />
  <path
     d="m 256.81023,42.619453 c -135.7364,0 -245.60729,109.067947 -245.60729,243.863487 v 45.7244 a 30.700912,30.482935 0 0 0 16.970887,27.26508 l 13.799102,6.85009 c 1.929359,57.24123 49.264409,103.05803 107.384111,103.05803 h 23.02569 c 12.7169,0 23.02568,-10.23559 23.02568,-22.8622 V 278.8622 C 195.40841,266.2356 185.09963,256 172.38273,256 h -23.02569 c -30.06962,0 -57.248562,12.26843 -76.752277,32.03281 v -1.54987 c 0,-100.84994 82.634387,-182.89761 184.205467,-182.89761 101.5711,0 184.20548,82.04767 184.20548,182.89761 v 1.54987 C 421.51199,268.26843 394.33304,256 364.26343,256 h -23.02569 c -12.71689,0 -23.02568,10.2356 -23.02568,22.8622 v 167.65614 c 0,12.62661 10.30879,22.8622 23.02568,22.8622 h 23.02569 c 58.1197,0 105.45475,-45.81775 107.38411,-103.05803 l 13.79814,-6.85009 a 30.700912,30.482935 0 0 0 16.97184,-27.26508 v -45.7244 c 0,-134.77173 -109.84786,-243.863487 -245.60729,-243.863487 z"
     id="path825"
     style="fill:#ffffff;stroke:#709dca;stroke-width:25;stroke-miterlimit:4;stroke-dasharray:none;stroke-opacity:1"
     inkscape:connector-curvature="0" />
</svg>
